<svg class="animated" id="freepik_stories-business-support" xmlns="http://www.w3.org/2000/svg" viewBox="0 0 500 500" version="1.1" xmlns:xlink="http://www.w3.org/1999/xlink" xmlns:svgjs="http://svgjs.com/svgjs"><style>svg#freepik_stories-business-support:not(.animated) .animable {opacity: 0;}svg#freepik_stories-business-support.animated #freepik--background-complete--inject-10 {animation: 1.5s Infinite  linear wind;animation-delay: 0s;}svg#freepik_stories-business-support.animated #freepik--Speech_Bubble--inject-10 {animation: 1.5s Infinite  linear floating;animation-delay: 0s;}svg#freepik_stories-business-support.animated #freepik--Character--inject-10 {animation: 1.5s Infinite  linear floating;animation-delay: 0s;}svg#freepik_stories-business-support.animated #freepik--Character_hand--inject-10 {animation: 1.5s Infinite  linear floating;animation-delay: 0s;}            @keyframes wind {                0% {                    transform: rotate( 0deg );                }                25% {                    transform: rotate( 1deg );                }                75% {                    transform: rotate( -1deg );                }            }                    @keyframes floating {                0% {                    opacity: 1;                    transform: translateY(0px);                }                50% {                    transform: translateY(-10px);                }                100% {                    opacity: 1;                    transform: translateY(0px);                }            }        </style><g id="freepik--background-complete--inject-10" class="animable animator-active" style="transform-origin: 245.934px 205.828px;"><g id="eld802i8at2ud" class="animable" style="transform-origin: 219.644px 140.163px;"><g id="elavlysadwypw" class="animable" style="transform-origin: 136.026px 123.577px;"><polygon points="78.98729 128.6672 96.45269 161.0131 81.66339 169.0039 64.202 136.6443 78.98729 128.6672" style="fill: rgb(235, 235, 235); transform-origin: 80.3273px 148.836px;" id="ellra4nhfs7a" class="animable"></polygon><g id="elh4t7qw5gx4w"><rect x="49.42792" y="146.27368" width="3.19994" height="36.76013" style="fill: rgb(235, 235, 235); transform-origin: 51.0279px 164.654px; transform: rotate(-28.3672deg);" class="animable"></rect></g><polygon points="194.64789 126.8583 186.83709 112.381 103.00309 157.4852 85.52409 125.1353 169.354 80.0445 161.54319 65.5673 231.16569 67.5727 194.64789 126.8583" style="fill: rgb(235, 235, 235); transform-origin: 158.345px 111.526px;" id="el3nvxksvjvbt" class="animable"></polygon><polygon points="58.3514 139.8055 75.81679 172.1514 66.2447 177.3234 48.784 144.9863 58.3514 139.8055" style="fill: rgb(235, 235, 235); transform-origin: 62.3004px 158.564px;" id="eljj8nxg2gxbi" class="animable"></polygon></g><g id="ell4l0rt4oa9f" class="animable" style="transform-origin: 317.407px 164.32px;"><polygon points="274.51439 161.8398 291.97989 194.1857 277.19059 202.1765 259.72919 169.817 274.51439 161.8398" style="fill: rgb(235, 235, 235); transform-origin: 275.855px 182.008px;" id="elk1fwnzn97cn" class="animable"></polygon><g id="elm41wpu0vri"><rect x="244.95507" y="179.4464" width="3.19995" height="36.76" style="fill: rgb(235, 235, 235); transform-origin: 246.555px 197.826px; transform: rotate(-28.3671deg);" class="animable"></rect></g><polygon points="361.88259 175.1711 354.07169 160.6937 298.53029 190.6578 281.05129 158.3078 336.58869 128.3573 328.77779 113.88 398.40039 115.8853 361.88259 175.1711" style="fill: rgb(235, 235, 235); transform-origin: 339.726px 152.269px;" id="elu7jd8m9sp2j" class="animable"></polygon><polygon points="253.87859 172.9781 271.344 205.324 261.77179 210.4959 244.31119 178.1588 253.87859 172.9781" style="fill: rgb(235, 235, 235); transform-origin: 257.828px 191.737px;" id="elmhyqiimtua" class="animable"></polygon></g></g><g id="elnmlnxaeynyj" class="animable" style="transform-origin: 250px 226.971px;"><path d="M56.9738,301.2486l-7.554,12.1781,3.7296,2.3103c1.0969,.6795,1.6914,1.9199,1.5815,3.2054-.061,.7104-.0838,1.4257-.068,2.1423,.0282,1.2867-.644,2.484-1.7778,3.0921l-3.866,2.0732,6.7755,12.6336,3.8655-2.0731c1.1339-.6083,2.5034-.5057,3.5593,.2294,.5885,.4096,1.1969,.7865,1.8223,1.1287,1.1318,.6195,1.8358,1.8012,1.7952,3.0905l-.139,4.3855,14.324,.445,.1326-4.401c.039-1.2906,.8297-2.4135,1.9974-2.9649,.3169-.1495,.63111-.3081,.9425-.4749,.3111-.1669,.6169-.3409,.91661-.5223,1.09989-.6642,2.46579-.703,3.55819-.0262l3.75681,2.3271,7.55389-12.1781-3.7364-2.3191c-1.09649-.6807-1.6901-1.9224-1.5783-3.208,.0615-.7076,.0849-1.4199,.07-2.1338-.0266-1.285,.6454-2.4811,1.7781-3.0885l3.8671-2.074-6.7752-12.6333-3.867,2.0737c-1.1328,.6076-2.5009,.5055-3.5566-.2278-.5864-.4072-1.1927-.7817-1.8163-1.1218-1.1328-.6185-1.8386-1.7998-1.7989-3.0897l.1352-4.3956-14.32359-.4453-.1366,4.3978c-.0399,1.2862-.8286,2.4048-1.9921,2.9544-.3183,.1505-.6348,.3101-.9494,.4789-.3113,.1666-.6171,.3408-.9172,.5222-1.1055,.6678-2.4783,.7059-3.576,.0249l-3.7329-2.3157Zm12.128,9.0441c5.7128-3.0638,12.8217-.9181,15.8854,4.7948,3.064,5.7129,.9237,12.8319-4.7894,15.8957-5.713,3.0638-12.8372,.9135-15.901-4.7994-3.0639-5.7132-.9079-12.8272,4.805-15.8911Z" style="fill: rgb(235, 235, 235); transform-origin: 74.6497px 320.638px;" id="elu4ml08zfodj" class="animable"></path><path d="M415.335,130.0271l5.01719,8.6957,2.6612-1.5375c.7828-.4524,1.7454-.4088,2.5025,.0848,.4185,.273,.8525,.5236,1.3003,.7513,.8033,.4084,1.3202,1.2199,1.3202,2.1213v3.0733h10.043v-3.0733c0-.9014,.51661-1.7129,1.3198-2.1213,.4481-.2277,.882-.4783,1.3005-.7513,.7569-.4934,1.7196-.5372,2.5024-.0848l2.6613,1.5375,5.0175-8.6957-2.6735-1.5393c-.7836-.4513-1.2151-1.3113-1.1688-2.2147,.01241-.2452,.0186-.4917,.0186-.7391,0-.2473-.00619-.4937-.0186-.7387-.0462-.8993,.38241-1.7552,1.1618-2.2057l2.6805-1.5486-5.0175-8.6958-2.6688,1.5389c-.7831,.4515-1.7462,.407-2.5027-.0879-.417-.2721-.849-.5225-1.2946-.7496-.8021-.4091-1.3179-1.22-1.3179-2.1205v-3.074h-10.043v3.074c0,.9005-.5158,1.7114-1.3181,2.1205-.4458,.2271-.8776,.4775-1.2942,.7496-.757,.4948-1.7199,.5394-2.5029,.0879l-2.669-1.5389-5.01719,8.6958,2.66939,1.5401c.781,.4504,1.2103,1.308,1.1647,2.2085-.0126,.246-.0188,.4944-.0188,.7444,0,.2474,.0062,.4939,.0188,.7391,.0462,.9035-.3849,1.7639-1.1686,2.216l-2.66549,1.538Zm9.59879-4.4931c0-4.5415,3.6786-8.2198,8.2199-8.2198,4.5416,0,8.2282,3.6783,8.2282,8.2198s-3.6866,8.2278-8.2282,8.2278c-4.5413,0-8.2199-3.6862-8.2199-8.2278Z" style="fill: rgb(235, 235, 235); transform-origin: 433.158px 125.534px;" id="elfmg3k3pkc0l" class="animable"></path><path d="M128.25635,275.33301h-14.2959l-.76416-9.82129c-4.96777-.99805-9.64014-2.93066-13.89795-5.75l-7.03662,6.02539-10.11182-10.11133,6.00684-7.01611c-2.93311-4.37158-4.92139-9.21094-5.91406-14.39453l-8.67578-.68652v-14.29492l8.78467-.68701c1.09131-5.25781,3.20898-10.146,6.2998-14.54053l-5.53857-6.47119,10.11133-10.11133,6.74121,5.76904c4.49268-2.85889,9.4248-4.74072,14.66992-5.59766l.68506-8.75488h14.2959l.72607,9.32178c5.00928,1.18506,9.66162,3.30713,13.83789,6.31201l7.13477-6.0874,10.11133,10.11084-6.49268,7.58057c2.59717,4.24365,4.33691,8.8623,5.17529,13.74023l9.90039,.76221v14.30957l-10.3457,.80225c-1.0874,4.71777-3.03125,9.15479-5.78223,13.20117l6.58252,7.68164-10.11182,10.11133-7.84277-6.7041c-4.15625,2.68164-8.69141,4.52344-13.48975,5.47949l-.76318,9.82129Zm-13.37109-1h12.44531l.75098-9.65918,.37598-.07129c4.9292-.93164,9.57812-2.81934,13.81738-5.61133l.31396-.20605,7.71045,6.58984,8.80225-8.80273-6.48096-7.56299,.22021-.31738c2.86426-4.12695,4.8584-8.67773,5.92773-13.52734l.08008-.36182,10.16064-.78857v-12.45801l-9.75977-.75146-.06299-.38867c-.81006-5.00928-2.59131-9.74365-5.29395-14.07129l-.19482-.31104,6.36719-7.43359-8.80371-8.80322-7.03271,6.00098-.31934-.23486c-4.24658-3.12012-9.00684-5.29297-14.14795-6.45898l-.35889-.08154-.71094-9.13232h-12.44629l-.67432,8.62109-.39209,.06006c-5.37402,.82324-10.41504,2.74512-14.9834,5.7124l-.31348,.20361-6.60498-5.65234-8.80273,8.80273,5.4458,6.36279-.22852,.31836c-3.20459,4.46289-5.36914,9.45703-6.43408,14.84424l-.07373,.37158-8.6167,.67383v12.44629l8.52051,.67383,.06885,.37891c.96436,5.31396,2.99707,10.26123,6.04102,14.70459l.2168,.31641-5.90283,6.89453,8.80322,8.80273,6.75586-5.78613h.33789l.13965,.08594c4.33447,2.92773,9.11621,4.90527,14.21143,5.87695l.375,.07129,.75098,9.65918Zm6.22266-28.85938c-10.34375,0-18.75928-8.41553-18.75928-18.75977s8.41553-18.75977,18.75928-18.75977c10.35107,0,18.77246,8.41553,18.77246,18.75977s-8.42139,18.75977-18.77246,18.75977Zm0-36.51953c-9.79248,0-17.75928,7.9668-17.75928,17.75977s7.9668,17.75977,17.75928,17.75977c9.7998,0,17.77246-7.9668,17.77246-17.75977s-7.97266-17.75977-17.77246-17.75977Z" style="fill: rgb(235, 235, 235); transform-origin: 121.788px 227.112px;" id="elyza3z79amw" class="animable"></path></g></g><g id="freepik--Speech_Bubble--inject-10" class="animable" style="transform-origin: 297.452px 37.8923px;"><g id="elsch2q9ydfqq" class="animable" style="transform-origin: 297.452px 37.8923px;"><path d="M316.78679,37.8976c0,9.986-8.0996,18.0856-18.0857,18.0856-4.0356,0-7.7616-1.3234-10.7743-3.5665l-8.85979,2.2619,3.68839-8.2498c-1.3702-2.5434-2.1398-5.4527-2.1398-8.5312,0-9.9861,8.0995-18.0856,18.0855-18.0856s18.0857,8.0995,18.0857,18.0856Z" style="fill: rgb(255, 255, 255); transform-origin: 297.927px 37.8976px;" id="elzifrou1u6zk" class="animable"></path><g id="el2mbxx28g7pg" class="animable" style="transform-origin: 297.452px 37.8923px;"><path d="M316.78677,37.8976c.19813,10.38794-9.33506,19.17816-19.66328,18.25415-3.36611-.24179-6.66332-1.45078-9.40947-3.4491l.30084,.05943c-2.94379,.79087-5.8873,1.58275-8.83914,2.34193l-.87595,.22528,.36642-.82999,3.64969-8.26688,.01566,.42461c-5.78844-10.30656,.38158-24.02255,11.9082-26.55,11.24437-2.87393,22.7325,6.20923,22.54703,17.79058h0Zm0,0c.0771-11.50981-11.30242-20.37253-22.41438-17.25897-11.03988,2.75016-16.68193,15.87692-11.08104,25.774l-.09656,.21274-3.7269,8.23235-.5094-.60458c3.01092-.76301,6.03057-1.49208,9.04974-2.22285,2.62059,2.04126,5.82651,3.33012,9.15576,3.64952,10.31086,1.14599,19.69618-7.42669,19.62277-17.78221h0Z" style="fill: rgb(38, 50, 56); transform-origin: 297.545px 37.8949px;" id="el67u8jm208g8" class="animable"></path><path d="M298.60938,56.46777c-.50293,.00049-1.00586-.02197-1.50879-.06689-3.33398-.23926-6.54199-1.3877-9.29395-3.32422l-.08105,.02197c-2.67383,.71826-5.43652,1.46045-8.16699,2.16504l-.02637,.05908-.03613-.04297c-.08594,.02197-.17188,.04443-.25781,.06641l-1.375,.35303,.68359-1.54834-.03613-.04248,.06152-.01514,3.36816-7.63037c-2.62988-4.91357-2.77246-10.75781-.37891-16.09375,2.44629-5.4541,7.04688-9.28369,12.62402-10.50635,5.42578-1.38623,11.1748-.104,15.76855,3.52197,4.58984,3.62354,7.17188,8.91309,7.08301,14.5127,.09375,4.9917-2.06348,9.91602-5.91895,13.51025-3.49707,3.26025-7.98535,5.06006-12.50879,5.06006Zm-10.16699-3.56152c2.27148,1.51514,4.9209,2.51709,7.61426,2.8833-2.61719-.41943-5.17285-1.44287-7.36621-2.9502l-.24805,.06689Zm-.37598-1.14746l.09473,.07422c2.58008,2.00928,5.78516,3.28711,9.02637,3.59766,4.81543,.53467,9.71875-1.09277,13.46094-4.46582,3.77637-3.40479,5.92285-8.16602,5.88867-13.06445v-.00537c.03613-5.45898-2.51465-10.5542-7-13.97852-4.42383-3.37842-9.92773-4.48633-15.09766-3.03711-5.19336,1.29395-9.42578,4.9624-11.61914,10.06738-2.19336,5.10254-1.94238,10.69482,.68848,15.34277l.0625,.11084-3.28809,7.26172c2.38965-.59717,4.80078-1.18115,7.14453-1.74854l.63867-.15479Zm-9.16113,2.81836l-.16895,.38184,.37695-.09717,.02539-.00635-.2334-.27832Zm1.11523-.33398l-.19727,.43555c2.49512-.64648,5.0127-1.32178,7.46094-1.97949l-.24414-.17725c-2.30957,.55908-4.67773,1.13379-7.01953,1.72119Zm2.27051-7.33691l-3.10352,7.03125c.15918-.04053,.31738-.08057,.47656-.12061l3.34668-7.39258c-.16699-.2998-.32422-.60352-.47168-.91064l.02637,.70947s.00879,.24902,.01367,.36328l.17969,.3208h-.42676l-.04102-.00098Zm5.2207,5.50146l.78906,.15625c-.11816-.08594-.23535-.17334-.35059-.26221l-.40527,.09766-.0332,.0083Zm8.77539-32.44287c-.66504,.08838-1.32812,.21631-1.98633,.38428-5.42871,1.19043-9.90234,4.9165-12.2832,10.22461-2.27246,5.06689-2.19727,10.60107,.18164,15.30322l.24707-.55957c-2.10645-4.52441-2.15234-9.75928-.08594-14.56836,2.25586-5.24951,6.6123-9.02295,11.95117-10.35303,.6543-.18311,1.31348-.32666,1.97559-.43115Z" style="fill: rgb(38, 50, 56); transform-origin: 297.452px 37.8923px;" id="elpback9p6lf" class="animable"></path></g><polygon points="295.77109 48.6589 287.66629 40.4547 290.38919 37.7647 295.12369 42.5567 304.95989 27.1363 308.18739 29.1946 295.77109 48.6589" style="fill: rgb(0, 255, 136); transform-origin: 297.927px 37.8976px;" id="el421ue2ub01h" class="animable"></polygon></g></g><g id="freepik--Arrow--inject-10" class="animable" style="transform-origin: 250px 272.788px;"><g id="eldipx0c3r5dt" class="animable" style="transform-origin: 250px 272.788px;"><polygon points="397.66509 165.6859 456.86789 137.8431 451.38839 203.0378 397.66509 165.6859" style="fill: rgb(0, 255, 136); transform-origin: 427.266px 170.44px;" id="elixlkiay008g" class="animable"></polygon><polygon points="439.93109 183.756 345.02889 313.7411 197.51959 274.5335 43.1321 407.7336 43.1321 375.6343 191.40169 247.8729 335.24709 286.1011 420.40229 169.4924 439.93109 183.756" style="fill: rgb(0, 255, 136); transform-origin: 241.532px 288.613px;" id="eldj6cfabc3mf" class="animable"></polygon></g></g><g id="freepik--Blocks--inject-10" class="animable" style="transform-origin: 250px 397.207px;"><g id="elq5e3j7ahoqa" class="animable" style="transform-origin: 250px 397.207px;"><g id="eljgkdpasnrv" class="animable" style="transform-origin: 401.772px 397.2px;"><rect x="346.67679" y="316.291" width="87.9" height="161.8162" style="fill: rgb(69, 90, 100); transform-origin: 390.627px 397.199px;" id="el5a3gopfs6t2" class="animable"></rect><g id="elzlzks787jfo"><rect x="434.57259" y="316.3346" width="22.2953" height="161.7754" style="fill: rgb(0, 255, 136); transform-origin: 445.72px 397.222px; transform: rotate(180deg);" class="animable"></rect></g><g id="el9tesppbm82d"><rect x="434.57259" y="316.3346" width="22.2953" height="161.7754" style="fill: rgb(55, 71, 79); transform-origin: 445.72px 397.222px; transform: rotate(180deg);" class="animable"></rect></g></g><g id="eltgkm5ghfvc" class="animable" style="transform-origin: 98.2276px 426.883px;"><rect x="43.1321" y="375.6427" width="87.9" height="102.4793" style="fill: rgb(69, 90, 100); transform-origin: 87.0821px 426.882px;" id="eleystkupwm17" class="animable"></rect><g id="elyw79ofcfiaa"><rect x="131.02789" y="375.6703" width="22.2953" height="102.4535" style="fill: rgb(0, 255, 136); transform-origin: 142.176px 426.897px; transform: rotate(180deg);" class="animable"></rect></g><g id="el0igvb5ut973r"><rect x="131.02789" y="375.6703" width="22.2953" height="102.4535" style="fill: rgb(55, 71, 79); transform-origin: 142.176px 426.897px; transform: rotate(180deg);" class="animable"></rect></g></g></g></g><g id="freepik--Character--inject-10" class="animable" style="transform-origin: 264.904px 205.002px;"><g id="el0cundo7pn4xm" class="animable" style="transform-origin: 264.904px 205.002px;"><g id="elh1jn4pneen" class="animable" style="transform-origin: 234.118px 86.0431px;"><g id="elxdwzsk4yb7o" class="animable" style="transform-origin: 233.327px 86.0431px;"><path d="M250.73949,62.8802c-.50149,.1733-.971,.4361-1.373,.7913-1.8152,1.6076-2.1451,4.18-1.9959,6.4561,.16841,2.4345,.90941,5,.25541,7.4122-.25411,.9439-.74561,1.8547-1.57361,2.3981-.9355,.6138-2.0522,.5274-3.0831,.248-1.0864-.2885-2.3121-.8721-3.4396-.4235-.936,.3665-1.4894,1.339-1.7194,2.2754-.5937,2.43,.9758,4.8231,1.3576,7.1744,.4144,2.5137,.0477,5.1118-1.0343,7.4208-1.0083,2.156-2.68759,3.9704-4.70859,5.2125-.98451,.6067-2.07091,1.0892-3.18391,1.3892-1.2534,.3318-2.5566,.3873-3.82309,.6644-1.17411,.2604-2.44671,.7829-3.066,1.8819-.48081,.8486-.33981,4.4414,2.45809,7.8378,.2004,.2433-.252,.5881-.5434,.4157-.5665-.3256-1.11-.6808-1.6282-1.0722-4.33349-3.2372-6.9187-8.4505-6.7968-13.869,.06831-2.8961,.87531-5.7074,2.2875-8.2253,.7851-1.3923,1.6954-2.7406,2.2395-4.2542,.4819-1.35,.544-2.757,.3608-4.1705-.3568-2.686-1.3519-5.2529-1.2404-7.9982,.10491-2.4492,.8902-4.8377,2.1437-6.9367,2.6344-4.3859,7.1306-7.3043,12.1456-8.1657,4.9449-.8457,16.2378,3.4365,15.9611,3.5375Z" style="fill: rgb(38, 50, 56); transform-origin: 233.791px 86.6566px;" id="elxo87n78yhfr" class="animable"></path><path d="M250.58269,62.9364c-.9422,.4561-1.8576,1.0192-2.5102,1.8556-.5877,.7534-.9292,1.6695-1.0818,2.607-.3434,2.11,.1971,4.1622,.6671,6.2046,.4418,1.9199,.8094,3.975,.0448,5.8632-.3233,.7985-.8365,1.5669-1.5468,2.0699-.806,.5708-1.7605,.6788-2.7201,.5307-1.746-.2694-3.8622-1.1659-5.404,.1827-1.4885,1.3021-1.0726,3.6604-.7852,5.3682,.70151,4.1676,2.23,9.4651-1.1184,12.9457-1.6943,1.761-4.1792,2.8749-6.4712,3.6083-1.6544,.5294-3.7527,1.1854-4.4521,2.954-.0259,.0656,.0793,.0919,.1055,.0281,.7672-1.8604,2.9858-2.1517,4.6992-2.6225,2.0098-.5524,4.0311-1.424,5.69051-2.7027,1.70959-1.3176,2.69649-3.1835,3.02339-5.3027,.3322-2.1535,.0289-4.309-.3787-6.4299-.2089-1.0873-.4411-2.1703-.6175-3.2637-.1589-.9843-.2823-2.0312,.0032-3.0052,.3042-1.0385,1.1414-1.6453,2.2072-1.7179,1.04441-.071,2.0385,.262,3.0535,.4455,.9068,.1639,1.8345,.2027,2.701-.1555,.6937-.2867,1.2825-.777,1.7417-1.3659,1.0535-1.3514,1.4045-3.0914,1.2691-4.7724-.1921-2.3839-1.16989-4.6324-1.319-7.0204-.0761-1.2189,.042-2.5035,.6165-3.6012,.6037-1.1532,1.6488-1.8009,2.7138-2.4771,.1434-.0911,.0194-.2994-.1315-.2264Z" style="fill: rgb(38, 50, 56); transform-origin: 237.989px 85.0561px;" id="elsvhg7fcyka" class="animable"></path><path d="M232.86669,58.1835c-5.06569,.7772-9.1642,4.6291-10.92469,9.3369-.98711,2.64-1.22931,5.4749-.90661,8.2624,.3013,2.602,.96661,5.2187,.6991,7.8533-.2959,2.9155-2.1369,5.149-3.5911,7.573-1.1785,1.9643-1.9166,4.137-2.168,6.4154-.4822,4.3695,.8229,8.9161,3.598,12.3294,.3538,.4352,.7243,.8531,1.1198,1.2507,.0495,.0501,.1263-.0265,.0775-.0768-3.0858-3.1692-4.5393-7.7052-4.3069-12.0839,.1145-2.1553,.6449-4.2855,1.6094-6.2188,1.192-2.3889,3.0741-4.3982,3.9495-6.9502,.8206-2.3921,.4881-4.9657,.0984-7.4054-.4259-2.6649-.8297-5.2963-.3453-7.9868,.8991-4.994,4.2879-9.4567,9.1483-11.1606,5.4208-1.9004,11.10391-.038,16.0682,2.2802,.6638,.3101,1.3258,.6241,1.9861,.9414,.075,.0361,.1412-.0733,.0661-.1131-4.9336-2.6079-10.4521-5.1254-16.1778-4.2471Z" style="fill: rgb(38, 50, 56); transform-origin: 232.477px 84.6131px;" id="elvddku9b5wy" class="animable"></path></g><path d="M252.35939,60.3556c-.6629-.558-1.925-.7623-2.3952-.4192-.4703,.343-1.6567,4.7098-1.0434,5.6525,.6135,.9427,2.5006,.0802,2.5006,.0802l.938-5.3135Z" style="fill: rgb(0, 255, 136); transform-origin: 250.554px 62.8992px;" id="el7z5tdvzgss6" class="animable"></path></g><g id="eltl47r53azef" class="animable" style="transform-origin: 264.904px 246.499px;"><g id="elibi33f85h7b" class="animable" style="transform-origin: 221.955px 246.499px;"><g id="elz4rco1srgfe" class="animable" style="transform-origin: 216.069px 333.901px;"><path d="M247.46359,366.044c-1.1389,.1737-16.493,3.0303-32.4171,.1189-14.9829-2.7394-31.5628-6.7917-32.5417-7.6863-.7799-.6878,13.3029-58.1388,13.3029-58.1388l38.9825,7.7032-9.79319,37.4894-.12981,.6519s3.0579,2.4401,9.5941,6.5749c1.1669,.7381,13.24,4.2148,14.08871,5.1714,1.99089,2.253,1.12379,7.7876-1.08641,8.1154Z" style="fill: rgb(211, 118, 106); transform-origin: 216.069px 333.901px;" id="el1ucz3d6nmnt" class="animable"></path><path d="M247.46859,366.0412c-1.1381,.1726-16.4908,3.0318-32.4164,.128-14.9918-2.7433-31.5753-6.7912-32.54519-7.6996-.24511-.2086,.92429-5.806,2.65649-13.4444,9.5752,3.4904,39.1336,12.6425,43.5093,13.1657,5.0421,.6231,12.6607,1.3422,12.0679-.5839-.50769-1.6803-4.933-4.1411-6.034-4.7199,2.07331,.9285,13.0454,4.1308,13.8394,5.0478,1.9897,2.2406,1.126,7.7793-1.0775,8.1063Z" style="fill: rgb(38, 50, 56); transform-origin: 216.068px 356.245px;" id="elqvvou57w4zf" class="animable"></path></g><g id="eltfu9h5znofs" class="animable" style="transform-origin: 225.025px 231.394px;"><path d="M260.72869,126.057s2.8255,27.02-2.818,33.0983c0,0-6.108,69.1469-8.0799,87.2846-2.7974,25.7318-18.578,90.8166-18.578,90.8166l-42.6383-10.863s18.7582-80.7345,18.9337-82.2776c.5806-5.1063,7.811-79.9464,7.2984-81.4508-6.6179-19.4204,2.7307-37.131,2.7307-37.131l43.1514,.5229Z" style="fill: rgb(38, 50, 56); transform-origin: 225.025px 231.395px;" id="elr8mp5i0dsss" class="animable"></path><path d="M227.79509,326.509c-5.5874-1.6168-3.9553-1.2563-9.5652-2.7909-2.7453-.751-20.7912-5.664-23.5096-5.7739-.0601-.0024-.0928,.1233-.0392,.1504,2.4282,1.2284,20.5812,5.7273,23.3447,6.4087,5.6467,1.3924,4.0459,.912,9.71321,2.2212,.10649,.0247,.16089-.1849,.05609-.2155Z" style="fill: rgb(55, 71, 79); transform-origin: 211.253px 322.335px;" id="el2apl3n50vzs" class="animable"></path><path d="M214.06089,317.9441c5.028-22.7184,10.7267-45.3579,14.41311-68.3363,.87479-16.5982,2.21249-33.2153,3.62289-49.7718,1.1436-12.9304,2.1912-27.4638,3.526-39.5871-2.9617-4.5523-3.5655-10.1608-3.2653-15.4527,.3215-5.3002,1.4367-10.5386,3.14241-15.557-1.58321,5.0395-2.57511,10.2953-2.77151,15.5734-.15549,5.2198,.496,10.7754,3.4847,15.1735-1.0681,13.3169-3.7633,46.9647-4.7545,59.8332-.6784,9.058-1.5583,18.2703-1.8905,27.3554-1.0164,10.8145-3.8921,21.3411-6.1325,31.9396-2.9425,12.9879-6.131,25.9167-9.3748,38.8298h0Z" style="fill: rgb(55, 71, 79); transform-origin: 225.137px 223.592px;" id="elqvcah6bzhom" class="animable"></path><path d="M252.13909,222.8707l-34.56809-97.3382,43.15209,.5307s2.83491,27.0083-2.80709,33.0971c0,0-2.96151,38.5698-5.77691,63.7104Z" style="fill: rgb(55, 71, 79); transform-origin: 239.503px 174.202px;" id="elvgkelcy1vqt" class="animable"></path></g></g><g id="el07n9nhyrf0o2" class="animable" style="transform-origin: 282.092px 221.162px;"><g id="elgnecw16iq4w" class="animable" style="transform-origin: 314.431px 289.765px;"><path d="M346.37819,316.6009c-2.116,.6667-62.2975-.5343-64.5578-2.0368-.8692-.5557,.4787-51.1071,.4787-51.1071l37.8147-.7171-.7934,32.5365s22.83,10.7629,25.1433,12.677c2.2941,1.9064,4.0316,7.9902,1.9145,8.6475Z" style="fill: rgb(211, 118, 106); transform-origin: 314.431px 289.765px;" id="elwivotl93qdd" class="animable"></path><path d="M346.38119,316.6006c-.9318,.2929-13.06819,.2245-26.5826-.0678-.8872-.0223-1.7849-.0441-2.6824-.0658-2.3061-.0456-4.6341-.1108-6.9413-.1774-.8982-.0321-1.7966-.0642-2.6837-.0866l-.0416,.0024c-.8877-.0327-1.77559-.0656-2.6421-.089-1.3468-.0379-2.6628-.0879-3.9479-.1395-.8357-.0357-1.6613-.0722-2.4654-.0991l-.03119,.0017c-.80481-.0374-1.59891-.0757-2.36161-.1051l-.0312,.0019c-1.1596-.0486-2.2674-.1001-3.3237-.1648-.7107-.0324-1.4109-.0654-2.0807-.1106-1.3069-.0714-2.4995-.1493-3.5571-.235-.5333-.0321-1.0362-.0763-1.4976-.123-1.1523-.101-2.0754-.2046-2.7069-.3144-.5157-.0854-.8547-.1807-.9847-.2671-.3027-.1911-.1334-7.1259-.1334-15.1597,5.7935,1.431,16.9794,3.6923,33.2067,6.2271,26.6809,4.169,18.8026-3.1154,14.293-5.61-.0433-.0286-.0861-.0471-.1293-.076,.2783,.1301,.5679,.27,.8467,.4103,.04281,.0185,.0959,.0363,.1392,.0652,.5148,.2519,1.0294,.504,1.5441,.7561,.55751,.2706,1.1258,.5508,1.6839,.8316,.9328,.4575,1.86561,.9149,2.757,1.3749,.90061,.4384,1.75961,.8793,2.5759,1.3018,.4834,.2538,.9561,.4979,1.4065,.7223,.2253,.1124,.4409,.2355,.6557,.3483,.2901,.1503,.58,.3005,.8493,.4519,.6019,.32,1.1293,.613,1.5824,.8791,.1074,.0564,.21481,.1128,.3124,.1801,.4853,.2851,.843,.5253,1.05041,.6906,2.29719,1.9014,4.03049,7.9834,1.92119,8.6456Z" style="fill: rgb(38, 50, 56); transform-origin: 314.486px 308.095px;" id="elv51fwyt5dt8" class="animable"></path></g><g id="elv9mx0j22z5r" class="animable" style="transform-origin: 270.087px 206.374px;"><path d="M321.23349,287.2146l-40.5258-.646s2.5466-83.9812,1.5914-87.3111c-.3732-1.3014-34.79-19.4839-54.1798-34.0702-15.4047-11.5885-10.542-39.6532-10.542-39.6532l43.1514,.5229s-.291,3.0421,1.7006,5.8115c3.2508,4.5202,53.0015,37.2458,57.9059,50.6877,6.1552,16.8707,.8983,104.6584,.8983,104.6584Z" style="fill: rgb(38, 50, 56); transform-origin: 270.087px 206.374px;" id="elwldbcq8f9ca" class="animable"></path><g id="el5bg5v9lgmi3" class="animable" style="transform-origin: 267.8px 203.833px;"><path d="M217.51539,140.407c.0991,4.994,.1343,10.1871,2.3968,14.7401,4.5067,9.1425,14.0802,14.2324,22.2115,19.7728,4.2635,2.7208,8.5905,5.3487,12.9402,7.9481-4.5366-2.2611-8.9726-4.7208-13.3274-7.3215-8.4244-5.3548-18.1599-10.595-22.5638-20.0623-2.1329-4.7455-2.0161-10.0191-1.6573-15.0772h0Z" style="fill: rgb(55, 71, 79); transform-origin: 236.188px 161.637px;" id="elo0r6x3ehgff" class="animable"></path><path d="M253.89339,129.2392c.4994,3.5118,.9234,7.1308,2.1898,10.4547,1.63581,3.1597,4.5084,5.5085,7.0787,7.9059,10.7484,9.4229,22.4432,17.6973,33.5654,26.6811,2.7902,2.242,5.56071,4.513,8.2334,6.9137,2.27631,2.1908,4.9041,4.2867,6.2317,7.2461,.9604,3.9884,.8957,8.109,1.0751,12.1384,.4043,25.0354-.8964,50.0632-2.24049,75.052,.72989-21.4335,1.39989-42.8727,1.456-64.3164-.074-7.0883,.06689-14.322-.91221-21.3285-.5727-3.3708-3.9824-5.7209-6.2747-8.058-7.9786-7.1451-16.6074-13.5289-24.9818-20.2112-5.5841-4.4669-11.1969-8.9155-16.462-13.778-2.5376-2.4981-5.3454-4.9173-6.928-8.1765-1.2264-3.3813-1.5828-6.9792-2.0309-10.5233h0Z" style="fill: rgb(55, 71, 79); transform-origin: 283.118px 202.435px;" id="el69192fd5vvd" class="animable"></path><path d="M318.21159,278.0247c-5.5388-.2258-3.9465-.2685-9.4874-.4092-2.7116-.0687-20.5306-.4985-23.0711,.0484-.05609,.0121-.0577,.1421-.0019,.1555,2.5271,.6085,20.3507,.6106,23.0632,.6074,5.54261-.0062,3.9518-.0876,9.4945-.1794,.10411-.0018,.1068-.2183,.0027-.2227Z" style="fill: rgb(55, 71, 79); transform-origin: 301.949px 277.909px;" id="el8dg5l0uaelq" class="animable"></path></g></g></g></g><g id="elyop1tw0sxd" class="animable" style="transform-origin: 253.455px 126.152px;"><g id="elonaa1pcf60n" class="animable" style="transform-origin: 241.462px 107.353px;"><g id="elzwpj4bil7mo" class="animable" style="transform-origin: 241.462px 107.353px;"><path d="M265.24459,131.8368l-48.7173-3.4659s13.3435-38.457,25.5403-48.5527c5.5501-4.594,10.2217-3.1868,13.8379,.6866,.9019,.9677,11.38551,18.4474,11.7382,24.1178,.3115,5.0115-4.3578,9.9325-4.3578,9.9325l1.9587,17.2817Z" style="fill: rgb(235, 235, 235); transform-origin: 242.093px 104.388px;" id="elssju2ttcu6" class="animable"></path><g id="elsdf9fu7szwr" class="animable" style="transform-origin: 258.893px 108.605px;"><polygon points="254.39539 90.5393 256.59789 87.0788 259.30039 90.2811 258.70189 93.2984 255.64019 93.2427 254.39539 90.5393" style="fill: rgb(38, 50, 56); transform-origin: 256.848px 90.1886px;" id="elmws8cato9c" class="animable"></polygon><polygon points="255.64019 93.2427 254.39539 119.6685 262.58419 130.1306 263.39019 117.2855 258.70189 93.2984 255.64019 93.2427" style="fill: rgb(38, 50, 56); transform-origin: 258.893px 111.687px;" id="el20bulrtt6kh" class="animable"></polygon></g><path d="M255.80869,80.3118s6.02831,14.5278,5.9634,18.4768c-.0697,4.2393-.9395,16.6769-.9395,16.6769,0,0-8.9237-14.962-10.2937-19.9601-2.1278-7.7632-1.8123-18.5669-1.8123-18.5669,0,0-3.5453-1.2477-10.47059,6.4467-6.14521,6.8276-18.01251,30.8508-23.15581,45.854l45.0841,8.6039,2.6771-6.3685,1.7314,4.8747,2.4807-3.5386-3.7876-18.2556s5.4563-4.1529,4.40411-11.0896c-1.14431-7.5441-11.88131-23.1537-11.88131-23.1537Z" style="fill: rgb(0, 255, 136); transform-origin: 241.462px 107.353px;" id="el97zag7m266r" class="animable"></path><g id="elv91c7nrxlsa" class="animable" style="transform-origin: 255.701px 96.2128px;"><g id="elyei2fqcpd8" class="animable" style="transform-origin: 260.823px 97.8887px;"><path d="M260.83259,115.4655l4.8458-15.2485-3.1075-4.8827,3.2669-.2176s-9.29379-13.6628-10.0291-14.8049c.1332,.5728,6.1072,14.8039,5.9634,18.4771-.1466,3.6335-.7578,15.9377-.9395,16.6766Z" style="fill: rgb(0, 255, 136); transform-origin: 260.823px 97.8887px;" id="elkf1ks488w9a" class="animable"></path><g id="eludgjha9me3"><path d="M260.83259,115.4655l4.8458-15.2485-3.1075-4.8827,3.2669-.2176s-9.29379-13.6628-10.0291-14.8049c.1332,.5728,6.1072,14.8039,5.9634,18.4771-.1466,3.6335-.7578,15.9377-.9395,16.6766Z" style="opacity: 0.2; transform-origin: 260.823px 97.8887px;" class="animable"></path></g></g><g id="el7taxof12wtr" class="animable" style="transform-origin: 253.189px 96.2128px;"><path d="M249.119,94.7351l-2.29161,5.3838,13.98661,15.3682c-.18541-.4763-8.92861-15.0634-10.27691-19.9834-2.1288-7.7587-1.8105-18.5652-1.8105-18.5652l-3.162,16.2866,3.55441,1.51Z" style="fill: rgb(0, 255, 136); transform-origin: 253.189px 96.2128px;" id="elbmgc06wpqh" class="animable"></path><g id="elkr5dq04ogtr"><path d="M249.119,94.7351l-2.29161,5.3838,13.98661,15.3682c-.18541-.4763-8.92861-15.0634-10.27691-19.9834-2.1288-7.7587-1.8105-18.5652-1.8105-18.5652l-3.162,16.2866,3.55441,1.51Z" style="opacity: 0.2; transform-origin: 253.189px 96.2128px;" class="animable"></path></g></g></g><g id="elvu536aqjy2o" class="animable" style="transform-origin: 260.27px 123.47px;"><path d="M260.83258,115.4655c1.18058,5.25792,1.86458,10.62252,2.02888,16.00909-1.18471-5.25724-1.86054-10.62286-2.02888-16.00909h0Z" style="fill: rgb(38, 50, 56); transform-origin: 261.847px 123.47px;" id="elisxiha2rbs" class="animable"></path><path d="M257.68039,120.9538c.09108,1.10217,1.64532,.92919,1.57118-.07768-.02876-1.00666-1.589-1.02644-1.57118,.07768h0Zm0,0c-.08476-1.48842,2.19897-1.70391,2.31956-.11462,.03464,1.58996-2.25728,1.6023-2.31956,.11462h0Z" style="fill: rgb(38, 50, 56); transform-origin: 258.839px 120.895px;" id="eleniiam0mb9" class="animable"></path><path d="M258.285,127.0161c.09112,1.10213,1.64525,.9296,1.57118-.07754-.02853-1.00675-1.5889-1.02645-1.57118,.07754h0Zm0,0c-.0845-1.4884,2.19931-1.70372,2.31959-.11429,.03431,1.59005-2.25728,1.60199-2.31959,.11429h0Z" style="fill: rgb(38, 50, 56); transform-origin: 259.444px 126.958px;" id="elg4747rmk1b6" class="animable"></path></g><g id="el4ktg5xcmbqa"><polygon points="244.63409 121.8651 232.01629 117.8769 231.39429 119.4915 244.11379 123.5147 244.63409 121.8651" style="opacity: 0.1; transform-origin: 238.014px 120.696px;" class="animable"></polygon></g></g><g id="eldqoqc6igxgn"><g style="opacity: 0.1; transform-origin: 257.803px 116.077px;" class="animable"><path d="M261.98649,114.0824c-1.6609,.3975-3.3203,.8758-4.9087,1.6112-.7903,.3659-1.561,.7809-2.3286,1.2206-.3826,.219-.7687,.4195-1.1577,.6174-.3994,.2033-.83,.3984-1.2606,.458-.039,.0054-.0307,.0857,.0082,.0834,.4221-.0234,.826-.0477,1.2401-.1489,.3936-.0959,.77981-.2514,1.1575-.4205,.8046-.3605,1.5944-.7731,2.396-1.1452,1.6166-.7507,3.2328-1.5003,4.8918-2.0856,.0764-.027,.0404-.2093-.038-.1904Z" id="elelbaanruuvw" class="animable" style="transform-origin: 257.186px 116.077px;"></path><path d="M263.26469,115.3759c-.7094-.1188-1.4254-.1489-2.1204-.0522-.3496,.0487-.6914,.1522-1.0325,.2812-.16279,.0615-.3246,.1315-.4857,.2064-.1772,.0827-.3459,.2322-.5238,.3077-.0185,.0079-.0117,.0888,.0075,.0824,.1697-.0571,.34921-.0367,.5218-.0663,.1735-.0297,.3466-.0634,.5199-.0935,.34751-.0602,.6954-.1099,1.042-.179,.6936-.1385,1.3859-.2575,2.08551-.3301,.03779-.004,.02239-.1505-.01431-.1566Z" id="elmjvq2v9e79" class="animable" style="transform-origin: 261.196px 115.734px;"></path></g></g></g><g id="elfenhomrnlww" class="animable" style="transform-origin: 260.635px 67.6621px;"><g id="elz3iyruyc4wp" class="animable" style="transform-origin: 255.64px 75.0582px;"><path d="M248.72689,78.7066c.05,.9708,3.4072,7.8164,7.6998,8.3832,1.3986,.1819,2.7339-7.4065,2.7339-7.4065l.2267-.5377,3.1664-7.5286-8.1503-7.5713-1.1907-1.0224s-.7305,2.1168-1.6136,4.7619c-.0417,.1228-.0835,.2451-.12609,.3766-.05391,.1484-.10641,.2878-.15021,.4284-.1371,.3934-.2751,.7958-.4046,1.1996-.0996,.3065-.1981,.6044-.2911,.9305-.1017,.3246-.1932,.6416-.2953,.9663-.9326,3.2217-1.6206,6.6088-1.6049,7.02Z" style="fill: rgb(211, 118, 106); transform-origin: 255.64px 75.0582px;" id="el3aaz15jcifx" class="animable"></path><path d="M251.59909,67.7852c1.1232,6.6479,5.6524,10.0909,7.7882,11.3604l3.1664-7.5286-8.1503-7.5713-1.1907-1.0224s-.7305,2.1168-1.6136,4.7619Z" style="fill: rgb(38, 50, 56); transform-origin: 257.076px 71.0844px;" id="elq3ci4zy6wgm" class="animable"></path></g><g id="el9rud30evtdl" class="animable" style="transform-origin: 260.635px 59.9869px;"><path d="M274.49719,59.2839c2.6677,14.0836-5.46619,17.272-8.504,17.8439-2.7573,.5191-12.2124,1.9364-16.3215-11.796-4.1088-13.7327,1.5959-19.4253,7.8395-20.9464,6.2443-1.5213,14.318,.8145,16.986,14.8985Z" style="fill: rgb(211, 118, 106); transform-origin: 261.653px 60.7089px;" id="el4oyn5ejfgvk" class="animable"></path><g id="elz82u3z86x8" class="animable" style="transform-origin: 267.982px 62.5729px;"><path d="M272.15669,56.6642c-.3379,.024-.6539-.0104-.9904-.0216-.38-.0123-.6839,.0168-1.0059-.2147-.1728-.1242-.2192-.4335-.1143-.6124,.2442-.4172,.7132-.5177,1.1712-.5214,.4969-.0038,.8809,.1204,1.2682,.4305,.3751,.3009,.1172,.9082-.3288,.9396Z" style="fill: rgb(38, 50, 56); transform-origin: 271.328px 55.9833px;" id="el0nfe0p5rcxam" class="animable"></path><path d="M263.00809,59.9429c.33691-.0371,.6412-.1275,.9708-.1986,.3717-.0802,.6758-.1059,.9513-.3912,.14781-.1527,.13781-.4655,.0027-.6226-.3145-.3672-.794-.382-1.2452-.3037-.48969,.085-.8455,.2759-1.171,.6502-.3151,.3628,.0472,.9145,.4914,.8659Z" style="fill: rgb(38, 50, 56); transform-origin: 263.718px 59.1672px;" id="elmugrw6yct4o" class="animable"></path><g id="elvbkd373rw3o" class="animable" style="transform-origin: 263.876px 62.1454px;"><g id="elilhn7gk44a" class="animable" style="transform-origin: 264.591px 62.1454px;"><path d="M265.499,61.2299c-.01341-.0355-.068,.0578-.06041,.0974,.1865,.9589,.2386,2.0888-.582,2.5501-.0253,.0142-.0149,.0624,.0166,.0525,1.0402-.3219,.9561-1.8211,.62581-2.7Z" style="fill: rgb(38, 50, 56); transform-origin: 265.282px 62.5766px;" id="elvdt2z5q1gq" class="animable"></path><path d="M264.47519,60.3624c-1.5697,.1326-1.1884,3.2626,.266,3.1393,1.431-.1211,1.04981-3.251-.266-3.1393Z" style="fill: rgb(38, 50, 56); transform-origin: 264.557px 61.9324px;" id="el26w5zj1siz4" class="animable"></path></g><path d="M263.881,60.6024c-.25181,.2104-.48151,.5558-.807,.6282-.377,.0842-.70461-.2083-.99231-.493-.0301-.0296-.0535,.0011-.0492,.0425,.0641,.6009,.3697,1.188,1.0234,1.1989,.5965,.0102,.9529-.5722,1.02911-1.1932,.01439-.115-.10281-.2681-.204-.1834Z" style="fill: rgb(38, 50, 56); transform-origin: 263.059px 61.2785px;" id="eldm6afuevqft" class="animable"></path></g><g id="el03txvywinxsw" class="animable" style="transform-origin: 272.407px 60.7256px;"><g id="eld49o6cnv7fn" class="animable" style="transform-origin: 272px 60.9216px;"><path d="M270.88479,60.3298c.0016-.0379,.083,.0332,.08821,.073,.12739,.9685,.43639,2.0569,1.36079,2.2339,.0285,.0055,.034,.0544,.0009,.0551-1.08869,.025-1.4844-1.4237-1.4499-2.362Z" style="fill: rgb(38, 50, 56); transform-origin: 271.62px 61.5056px;" id="el5nbvpdw2kev" class="animable"></path><path d="M271.58059,59.1821c1.531-.3718,2.1619,2.7174,.7438,3.0619-1.3959,.3389-2.0272-2.7503-.7438-3.0619Z" style="fill: rgb(38, 50, 56); transform-origin: 272px 60.7105px;" id="el8vb7lrql37v" class="animable"></path></g><path d="M272.26639,59.2538c.2774,.1138,.57961,.3619,.8753,.3216,.3422-.0468,.524-.4322,.6744-.7965,.0157-.0379,.0452-.017,.0548,.024,.1369,.5869,.06711,1.2417-.4767,1.4709-.4964,.2093-.98019-.2199-1.2407-.7791-.04849-.1037,.0009-.2869,.1129-.2409Z" style="fill: rgb(38, 50, 56); transform-origin: 273.033px 59.5434px;" id="elrlbmqekc2j" class="animable"></path></g><path d="M266.28479,68.9253c.233,.2296,.4653,.5452,.8195,.5763,.3399,.0297,.73871-.1226,1.0509-.2421,.0307-.0119,.062,.0209,.0421,.0501-.2548,.374-.7891,.6068-1.2415,.5262-.442-.0789-.6593-.4618-.7649-.8666-.0152-.0567,.0597-.0775,.0939-.0439Z" style="fill: rgb(38, 50, 56); transform-origin: 267.196px 69.3804px;" id="elr3ze2hf53mb" class="animable"></path><path d="M270.17309,65.181s.2793,1.4457,.3163,2.1331c.0032,.0641-.1613,.1037-.3938,.1298-.0111,.0041-.0169,.0089-.0268,.0022-1.2032,.2543-2.4475-.0987-3.2379-1.0496-.0511-.0647,.0324-.14,.0972-.1007,.9415,.6166,1.9517,.7344,3.0285,.6944,.03841-.1928-.5615-2.46-.4528-2.4742,.3737-.0523,1.1274,.1635,1.5791,.2697-.49489-3.0287-1.4712-5.9533-1.9188-8.9763-.01409-.1081,.1401-.1489,.177-.0538,1.2403,2.9928,1.8861,6.4655,2.4778,9.58,.0774,.3875-1.3648-.0524-1.6458-.1546Z" style="fill: rgb(38, 50, 56); transform-origin: 269.319px 61.6142px;" id="elyoko2d0svlk" class="animable"></path></g><path d="M250.17719,66.1456c2.3915-.1476,2.2416-5.1838,2.2416-5.1838,0,0,4.8098-.6571,5.4298-7.7919,0,0,.3457,3.2326-1.3295,6.0137,0,0,8.3511-2.0825,10.9296-9.6751,0,0-.919,3.8123-2.0748,5.2837,0,0,3.4169-1.4884,4.7474-4.6175,0,0,2.1756,3.9939,3.4763,4.9651,0,0,.3338-17.2333-16.06159-11.3931,0,0-8.66631,.4688-10.80461,7.7108-2.1382,7.242,3.4458,14.6881,3.4458,14.6881Z" style="fill: rgb(38, 50, 56); transform-origin: 259.921px 54.3421px;" id="el846iaujuxoj" class="animable"></path><g id="elu4wh1vb12l" class="animable" style="transform-origin: 250.841px 65.9632px;"><g id="elbmymr8erecn" class="animable" style="transform-origin: 250.841px 65.2273px;"><path d="M253.34729,64.1726s-3.35929-4.3036-5.3282-3.0825c-1.9687,1.221,.7217,7.5738,3.1484,8.3345,2.4268,.7606,3.1751-1.472,3.1751-1.472l-.9953-3.78Z" style="fill: rgb(211, 118, 106); transform-origin: 250.841px 65.2273px;" id="elfio80etaf98" class="animable"></path><path d="M248.83539,62.8918c-.0383-.0013-.0429,.0527-.0092,.0646,1.7046,.5882,2.6645,2.0892,3.3645,3.6615-.529-.5915-1.2224-.8943-2.0188-.2601-.0417,.0333,.0036,.0992,.05011,.0869,.67579-.1824,1.17549-.09,1.66579,.4333,.3476,.3703,.5968,.8489,.8546,1.2842,.086,.1451,.3512,.0509,.2853-.1179l-.01569-.0379c-.06981-2.1302-1.88071-5.0205-4.17661-5.1146Z" style="fill: rgb(38, 50, 56); transform-origin: 250.921px 65.5627px;" id="ely9czlm465cm" class="animable"></path></g><path d="M253.45509,69.8517c0,.6642-.5385,1.2027-1.2027,1.2027s-1.2026-.5385-1.2026-1.2027,.5384-1.2026,1.2026-1.2026,1.2027,.5384,1.2027,1.2026Z" style="fill: rgb(0, 255, 136); transform-origin: 252.252px 69.8517px;" id="el8s1l3jhypxk" class="animable"></path></g></g><g id="elgs8vznuze46" class="animable" style="transform-origin: 253.53px 84.8184px;"><path d="M259.41679,79.2722l-3.02579,6.2928-7.49031-8.7138-2.45069,2.4737s6.99529,13.5176,7.08369,12.9339l3.0345-5.3957,3.5887,4.1323,.3342-9.7538-1.0743-1.9694Z" style="fill: rgb(235, 235, 235); transform-origin: 253.471px 84.5642px;" id="el7l0crhvid2w" class="animable"></path><path d="M260.59449,86.1834c.00151-1.6121,.0474-3.2358-.0259-4.8463-.00259-.0574-.0898-.0886-.1082-.0224-.4245,1.5286-.3963,7.6945-.501,9.1651l-.0158-.018c-.1494-.1783-3.3382-3.648-3.3754-3.5987-.6367,.8464-2.8615,4.7746-3.0199,5.1349-1.10529-2.1468-5.3702-9.9678-6.7115-12.0172-.0385-.0589-.1285-.0185-.0999,.0495,.9529,2.2526,6.5849,12.7766,6.6838,12.7548,.0624,.0555,2.8242-4.7816,3.1772-5.7063,.5292,.745,3.7224,4.6334,3.75,4.3954,.18611-1.6052,.2453-3.6766,.2466-5.2908Z" style="fill: rgb(38, 50, 56); transform-origin: 253.671px 86.369px;" id="elggnh51bensp" class="animable"></path></g></g><g id="el8xfvrc24do3" class="animable" style="transform-origin: 253.455px 145.211px;"><g id="eleackh55p24v" class="animable" style="transform-origin: 283.057px 141.19px;"><path d="M297.74479,132.2607l-14.1247,26.1099c-.3904,.7216-1.28209,.9959-1.9912,.6123l-12.6838-6.8616c-.7083-.3832-.966-1.2793-.5756-2.0009l14.1247-26.1098c.3907-.7224,1.2813-.9963,1.9897-.6131l12.6838,6.8616c.7091,.3836,.9678,1.2793,.5771,2.0016Z" style="fill: rgb(55, 71, 79); transform-origin: 283.057px 141.19px;" id="elwgx7zsza8y9" class="animable"></path><path d="M284.727,126.3553c-.21341,.3945-.70621,.5413-1.10071,.3279-.3944-.2134-.5412-.7062-.3278-1.1006,.2134-.3945,.7061-.5413,1.1006-.3279s.5413,.7062,.32791,1.1006Z" style="fill: rgb(38, 50, 56); transform-origin: 284.013px 125.969px;" id="elxobiytjb4gn" class="animable"></path><path d="M283.62729,128.3881c-.2134,.3945-.7062,.5413-1.1007,.3279-.3944-.2134-.5412-.7062-.3278-1.1006,.2134-.3945,.7061-.5413,1.1006-.3279s.5413,.7062,.3279,1.1006Z" style="fill: rgb(38, 50, 56); transform-origin: 282.913px 128.002px;" id="elnvkmzke3xiq" class="animable"></path><path d="M287.30119,136.9449c-.4501,.832-1.4894,1.1416-2.3214,.6915s-1.1416-1.4894-.6915-2.3214c.4501-.8319,1.4894-1.1415,2.3214-.6915,.832,.4501,1.1416,1.4894,.6915,2.3214Z" style="fill: rgb(38, 50, 56); transform-origin: 285.795px 136.13px;" id="elyojiwrw41b" class="animable"></path></g><g id="els2goibx9p5e" class="animable" style="transform-origin: 241.663px 164.32px;"><g id="el9yp1t56qjp" class="animable" style="transform-origin: 241.663px 184.417px;"><path d="M217.74759,204.3095l45.8069,5.319c12.3811,1.4376,11.5437-8.6958,9.781-19.4346-1.7629-10.7387-4.33249-27.0014-15.3963-28.2864-11.0525-1.2832-11.8899-1.3806-11.8899-1.3806,0,0-.8485-.0984-11.9011-1.3817-11.0638-1.2847-17.2916,13.9566-21.468,24.0058-4.1768,10.049-7.3138,19.721,5.0674,21.1585Z" style="fill: rgb(69, 90, 100); transform-origin: 241.663px 184.417px;" id="el5ioiqxb6gzu" class="animable"></path><g id="el4sbrqxsatj" class="animable" style="transform-origin: 245.41px 165.994px;"><path d="M254.27309,167.0231c-.2436,2.0964,1.2587,3.9934,3.3553,4.2368,2.0963,.2434,3.9932-1.2588,4.2367-3.3552,.2434-2.0965-1.2588-3.9934-3.3553-4.2368-2.0964-.2434-3.9934,1.2587-4.2367,3.3552Z" style="fill: rgb(0, 255, 136); transform-origin: 258.069px 167.464px;" id="elxrz2m5ooels" class="animable"></path><path d="M228.95549,164.0834c-.2434,2.0963,1.2587,3.9933,3.3553,4.2368,2.0964,.2434,3.99321-1.2588,4.2366-3.3553,.24361-2.0965-1.2586-3.9933-3.3551-4.2367-2.0965-.2436-3.99329,1.2587-4.2368,3.3552Z" style="fill: rgb(0, 255, 136); transform-origin: 232.751px 164.524px;" id="elynbk2ml7zbr" class="animable"></path><path d="M255.49729,167.1652c-.1652,1.4205,.8528,2.7056,2.2732,2.8705s2.70551-.8528,2.87051-2.2733c.16479-1.4204-.85291-2.7054-2.27331-2.8705-1.4204-.1648-2.7055,.853-2.8704,2.2733Z" style="fill: rgb(38, 50, 56); transform-origin: 258.069px 167.464px;" id="elbwswghkvlb" class="animable"></path><path d="M230.17969,164.2255c-.165,1.4204,.8529,2.7056,2.2732,2.8705,1.4205,.1649,2.7055-.8529,2.8705-2.2732,.1649-1.4204-.8528-2.7056-2.2732-2.8706-1.4204-.1649-2.7057,.8528-2.8705,2.2733Z" style="fill: rgb(38, 50, 56); transform-origin: 232.752px 164.524px;" id="elz5fpe8cl7j" class="animable"></path></g></g><path d="M258.57879,168.996c-.1121,.0055-.2269-.0016-.3424-.0212-.8461-.1463-1.4133-.9504-1.2673-1.7966,1.7583-10.18,5.0268-37.9541-.8868-44.1364-.8108-.8479-1.738-1.1767-2.9048-1.0246-.8639,.1022-1.63049-.4954-1.7388-1.3458-.1081-.8519,.4945-1.6304,1.3459-1.7386,2.1432-.27,4.058,.405,5.545,1.9602,3.5278,3.6883,4.8677,12.7555,3.9832,26.9489-.6434,10.3208-2.2636,19.7715-2.27979,19.8656-.12621,.7308-.74341,1.2531-1.45421,1.2885Z" style="fill: rgb(69, 90, 100); transform-origin: 257.002px 143.936px;" id="elv69b4ilf1h" class="animable"></path></g><g id="el2tntn0xuz2c" class="animable" style="transform-origin: 259.321px 124.521px;"><path d="M238.49469,86.7022c-9.9594,20.7736-15.5684,39.56-11.8632,45.5577,4.9843,8.0681,23.6374,20.0231,32.91,22.9287,3.2749,1.0261,16.0411-20.7907,12.747-22.4068-3.9811-1.9534-24.7384-11.7292-25.0614-12.0358-.6915-.6572-.304-23.681,.0151-30.0073,.5326-10.5641-4.3271-13.2563-8.7475-4.0365Z" style="fill: rgb(211, 118, 106); transform-origin: 249.155px 118.157px;" id="elrlqrldtvvt" class="animable"></path><g id="el1i6vdsv31bm" class="animable" style="transform-origin: 272.304px 148.718px;"><path d="M293.08649,149.7793c-.6454,2.6522-3.4657,2.8389-3.4657,2.8389,0,0,.7446,2.0483-.1156,3.9573-.98519,2.1862-4.8453,1.6001-4.8453,1.6001,0,0,.324,2.2293-.7875,4.1545-1.15339,1.9977-5.1328,1.9617-5.1328,1.9617,0,0-.8391,2.2424-2.9934,3.2171-3.6828,1.6664-8.8226-1.7546-12.1118-3.8961-3.2892-2.1413-10.6133-11.2967-12.1856-12.8997l13.5629-21.2294s17.482,5.4068,20.9919,8.4739c2.9568,2.5837,7.8076,8.8445,7.0829,11.8217Z" style="fill: rgb(211, 118, 106); transform-origin: 272.304px 148.718px;" id="el44gkdgghakx" class="animable"></path><g id="elejgs1wvh32" class="animable" style="transform-origin: 279.635px 153.823px;"><path d="M289.69229,152.1835c-2.4845-3.5013-5.8691-6.0774-9.10129-8.8405-.072-.0614-.16741,.0521-.09431,.1128,3.2466,2.7107,5.9126,6.0309,9.0446,8.8652,.0865,.0783,.2182-.0431,.151-.1375Z" style="fill: rgb(38, 50, 56); transform-origin: 285.091px 147.836px;" id="eli49m170y5kh" class="animable"></path><path d="M284.76949,157.8544c-.5861-.7748-1.426-1.3546-2.1886-1.9434-.821-.634-1.6528-1.2526-2.4943-1.8595-1.685-1.2142-3.3974-2.3901-5.1432-3.5147-.07739-.0499-.1729,.0561-.0946,.1128,1.677,1.2132,3.3356,2.4511,4.96,3.7336,.8128,.6418,1.6203,1.2908,2.4234,1.9449,.747,.6084,1.4844,1.3125,2.3539,1.7435,.1284,.0637,.2715-.1003,.1834-.2172Z" style="fill: rgb(38, 50, 56); transform-origin: 279.808px 154.305px;" id="el3kaqc3lu6a9" class="animable"></path><path d="M278.67019,164.2386c-.482-.6941-1.3769-1.1713-2.0634-1.6446-.779-.5373-1.5554-1.0786-2.3282-1.6245-1.5461-1.0915-3.0913-2.1838-4.5983-3.3284-.0748-.0569-.1699,.0549-.0944,.1126,1.5252,1.1711,3.03411,2.3623,4.5697,3.52,.754,.5684,1.5112,1.1326,2.27141,1.6924,.64619,.4764,1.40019,1.1449,2.19159,1.3523,.0441,.0116,.0756-.0452,.0516-.0798Z" style="fill: rgb(38, 50, 56); transform-origin: 274.118px 160.973px;" id="eldbz4jsmmve" class="animable"></path></g></g></g><g id="elgcz55w6or7k" class="animable" style="transform-origin: 241.476px 114.694px;"><path d="M257.84779,125.3786l-15.2641,23.3524s-15.42769-11.9672-16.8956-18.1585c-1.46809-6.1914,3.17491-26.3423,10.4654-40.6246,7.2906-14.2825,12.307-11.6093,11.64051,4.6718-.66671,16.2812-.17911,25.2439,.19009,25.4937,.3694,.2497,9.8637,5.2652,9.8637,5.2652Z" style="fill: rgb(0, 255, 136); transform-origin: 241.633px 114.694px;" id="ell1ibtlanp9l" class="animable"></path><path d="M251.72109,123.6249c.0438-.0761-.0782-.1527-.1307-.0825-4.7453,6.3316-9.05239,13.0233-13.0777,19.8312-.0446,.0753,.0789,.1531,.1306,.0823,4.6734-6.3801,9.1258-12.9765,13.0778-19.831Z" style="fill: rgb(38, 50, 56); transform-origin: 245.117px 133.499px;" id="elnni5q4npjr" class="animable"></path><path d="M257.84778,125.3786c-2.55154-1.27339-7.54077-3.81237-10.06689-5.13214-.56373-9.21072-.83806-18.49965,.26325-27.67936-.56662,9.16688-.28608,18.36641,.1509,27.53227l-.11126-.17249c2.44502,1.33217,7.34496,4.07265,9.76401,5.45172h0Z" style="fill: rgb(38, 50, 56); transform-origin: 252.568px 108.973px;" id="elkq6jngtabq8" class="animable"></path><path d="M235.42609,90.3427c-2.30134,6.35323-4.55681,13.07451-6.49643,19.53991-1.00006,3.28093-1.90387,6.59075-2.66098,9.93241-.60393,3.30174-1.65365,6.81442-.70738,10.13538-2.58359-7.84793,6.47094-31.39548,9.86479-39.6077h0Z" style="fill: rgb(38, 50, 56); transform-origin: 230.265px 110.147px;" id="el88mv794i3a2" class="animable"></path><path d="M234.34308,91.0703c-.37061,1.36873-.63019,2.71933-.8797,4.1167-.08936-1.41088,.18989-2.87654,.8797-4.1167h0Z" style="fill: rgb(38, 50, 56); transform-origin: 233.895px 93.1286px;" id="el5l5yrdy899c" class="animable"></path></g><path d="M232.82309,165.9484c-.1006,.005-.2036,.0004-.3072-.0153-.8493-.1265-1.435-.9179-1.308-1.7667,.0156-.1067,1.62811-10.7771,4.9404-21.5235,4.5963-14.9135,10.194-22.8904,16.6363-23.7101,.854-.1089,1.63,.4949,1.7387,1.3458,.1082,.8519-.4945,1.6304-1.3458,1.7386-10.47649,1.3328-17.1914,31.2086-18.8949,42.608-.1112,.7456-.7342,1.2876-1.4595,1.3232Z" style="fill: rgb(69, 90, 100); transform-origin: 242.863px 142.435px;" id="el9jbjwzawyju" class="animable"></path></g></g></g></g><g id="freepik--Character_hand--inject-10" class="animable" style="transform-origin: 247.134px 396.701px;"><g id="elr6grs3ea0gq" class="animable" style="transform-origin: 247.134px 396.701px;"><g id="elsrz7kv8n3dm" class="animable" style="transform-origin: 250.08px 396.701px;"><path d="M252.28819,438.65c-.0301,1.59-.06,3.63-.11,6.1v.02c0,.22-.01,.45-.01,.68-.13,6.65-.32,16.17-.61,27.85-.01,.35-.02,.7-.0301,1.05-.0299,1.23-.0599,2.48-.0999,3.76h-107.83c-1.0201-12.38-1.88-22.99-2.56-31.23-.3901-4.8-.73-8.8-1.0101-11.88v-.02c-.27-2.92-.4799-5.02-.64-6.19-1.9599-14.65,113.2901-11.71,112.9001,9.86Z" style="fill: rgb(247, 169, 160); transform-origin: 195.826px 448.911px;" id="elvecrfou5r3" class="animable"></path><g id="elta1whpl06bi" class="animable" style="transform-origin: 250.08px 386.701px;"><path d="M140.08289,435.2376c-3.609-17.3935-4.5983-48.5362,7.1836-62.9684,6.67251-8.1734,33.5181-20.7816,52.3958-35.547,33.92171-26.5323,43.874-23.8916,45.96571-16.0531,3.21289,12.0398-22.08611,41.0247-22.08611,41.0247,0,0,76.1885-25.2873,97.188-39.687,15.6073-10.7021,30.0997-5.1281,18.0598,12.5865,0,0-10.229-7.0094-6.9118-9.465,19.1747-14.194,34.7267-5.1908,29.6538,4.0133-11.0598,20.0664-41.9341,39.7971-53.38669,47.0447-26.07181,16.4991-44.22911,31.6056-45.83081,34.113-7.1248,11.154-12.3903,47.8126-12.3903,47.8126l-109.841-22.8743Z" style="fill: rgb(247, 169, 160); transform-origin: 250.08px 386.701px;" id="el2bprleoaiv9" class="animable"></path><g id="elaciumvnp57d" class="animable" style="transform-origin: 270.865px 354.575px;"><path d="M341.6062,319.58691c3.04842,7.59198-3.17687,16.43899-7.91043,22.0253-10.71957,12.24773-24.97568,20.41723-38.67243,28.72604-6.87273,4.10746-13.80657,8.11665-20.90264,11.86796,12.78958-9.62279,26.35417-18.15851,39.56338-27.13592,9.55852-6.78643,30.77945-22.28471,27.92213-35.48337h0Z" style="fill: rgb(38, 50, 56); transform-origin: 308.267px 350.897px;" id="eltwwg1pzbvt" class="animable"></path><path d="M223.5419,361.69379c-1.82295,3.86731-4.33261,7.19065-6.52952,10.74072-.87757,1.86856-2.21004,3.52058-3.48342,4.98461-4.20771,4.68327-8.94527,8.7243-14.21289,12.14494,3.81226-4.85593,8.06552-9.34185,11.9671-14.05085,1.11177-1.37657,2.18308-2.67316,2.9421-4.1465,.15739-.30135,.39538-.69648,.56847-.92782,2.4892-3.33371,5.39471-6.22978,8.74816-8.7451h0Z" style="fill: rgb(38, 50, 56); transform-origin: 211.429px 375.629px;" id="elizmi3eltu6e" class="animable"></path></g></g></g><path d="M267.25,448.91c-.33441,3.44-1.275,13.21-2.88441,29.2H133.58459c-.951-14.7-1.56759-25.08-1.8184-29.2h135.48381Z" style="fill: rgb(0, 255, 136); transform-origin: 199.508px 463.51px;" id="el5g82pv2in4k" class="animable"></path></g></g><g id="freepik--Floor--inject-10" class="animable" style="transform-origin: 250px 478.111px;"><path d="M39.97049,478.11151c134.55803-.61222,285.50166-.61677,420.059-.00008-134.55803,.6168-285.50166,.61224-420.059,.00008h0Z" style="fill: rgb(38, 50, 56); transform-origin: 250px 478.111px;" id="eluzqbldzd7s" class="animable"></path></g><defs>     <filter id="active" height="200%">         <feMorphology in="SourceAlpha" result="DILATED" operator="dilate" radius="2"></feMorphology>                <feFlood flood-color="#32DFEC" flood-opacity="1" result="PINK"></feFlood>        <feComposite in="PINK" in2="DILATED" operator="in" result="OUTLINE"></feComposite>        <feMerge>            <feMergeNode in="OUTLINE"></feMergeNode>            <feMergeNode in="SourceGraphic"></feMergeNode>        </feMerge>    </filter>    <filter id="hover" height="200%">        <feMorphology in="SourceAlpha" result="DILATED" operator="dilate" radius="2"></feMorphology>                <feFlood flood-color="#ff0000" flood-opacity="0.5" result="PINK"></feFlood>        <feComposite in="PINK" in2="DILATED" operator="in" result="OUTLINE"></feComposite>        <feMerge>            <feMergeNode in="OUTLINE"></feMergeNode>            <feMergeNode in="SourceGraphic"></feMergeNode>        </feMerge>            <feColorMatrix type="matrix" values="0   0   0   0   0                0   1   0   0   0                0   0   0   0   0                0   0   0   1   0 "></feColorMatrix>    </filter></defs></svg>